REM DIRINDEX 1\6,1\2\7,1\2\8,1\2\9,1\3\10,1\3\11,1\4\12,1\4\13,1\4\14,1\5\15,1\5\16,1\5\17
REM DIRNAME folder01,folder02,folder03,folder04,folder05,folder06,folder07,folder08,folder09,folder10,folder11,folder12,folder13,folder14,folder15,folder16,folder17
TITLE ""
FILE "3Q_t2_0190-0205.mp3" MP3
  TRACK 01 AUDIO
    TITLE "7:cjc041_3982"
    INDEX 01 00:00:00
  TRACK 02 AUDIO
    TITLE "0:"
    INDEX 01 00:01:32
  TRACK 03 AUDIO
    TITLE "8:cjc041_3983"
    INDEX 01 00:02:10
  TRACK 04 AUDIO
    TITLE "0:"
    INDEX 01 00:03:74
  TRACK 05 AUDIO
    TITLE "9:cjc041_3984"
    INDEX 01 00:04:52
  TRACK 06 AUDIO
    TITLE "0:"
    INDEX 01 00:06:20
  TRACK 07 AUDIO
    TITLE "7:cjc041_3985"
    INDEX 01 00:07:72
  TRACK 08 AUDIO
    TITLE "0:"
    INDEX 01 00:09:08
  TRACK 09 AUDIO
    TITLE "8:cjc041_3986"
    INDEX 01 00:09:57
  TRACK 10 AUDIO
    TITLE "0:"
    INDEX 01 00:11:68
  TRACK 11 AUDIO
    TITLE "9:cjc041_3987"
    INDEX 01 00:12:44
  TRACK 12 AUDIO
    TITLE "0:"
    INDEX 01 00:13:59
  TRACK 13 AUDIO
    TITLE "7:cjc041_3988"
    INDEX 01 00:15:40
  TRACK 14 AUDIO
    TITLE "0:"
    INDEX 01 00:16:44
  TRACK 15 AUDIO
    TITLE "8:cjc041_3989"
    INDEX 01 00:17:25
  TRACK 16 AUDIO
    TITLE "0:"
    INDEX 01 00:18:31
  TRACK 17 AUDIO
    TITLE "9:cjc041_3990"
    INDEX 01 00:19:11
  TRACK 18 AUDIO
    TITLE "0:"
    INDEX 01 00:20:20
  TRACK 19 AUDIO
    TITLE "7:cjc041_3991"
    INDEX 01 00:22:01
  TRACK 20 AUDIO
    TITLE "0:"
    INDEX 01 00:23:12
  TRACK 21 AUDIO
    TITLE "8:cjc041_3992"
    INDEX 01 00:23:61
  TRACK 22 AUDIO
    TITLE "0:"
    INDEX 01 00:25:62
  TRACK 23 AUDIO
    TITLE "9:cjc041_3993"
    INDEX 01 00:26:38
  TRACK 24 AUDIO
    TITLE "0:"
    INDEX 01 00:27:51
  TRACK 25 AUDIO
    TITLE "7:cjc041_3994"
    INDEX 01 00:29:33
  TRACK 26 AUDIO
    TITLE "0:"
    INDEX 01 00:30:34
  TRACK 27 AUDIO
    TITLE "8:cjc041_3995"
    INDEX 01 00:31:20
  TRACK 28 AUDIO
    TITLE "0:"
    INDEX 01 00:32:05
  TRACK 29 AUDIO
    TITLE "9:cjc041_3996"
    INDEX 01 00:32:56
  TRACK 30 AUDIO
    TITLE "0:"
    INDEX 01 00:33:62
  TRACK 31 AUDIO
    TITLE "7:cjc041_3997"
    INDEX 01 00:35:45
  TRACK 32 AUDIO
    TITLE "0:"
    INDEX 01 00:37:05
  TRACK 33 AUDIO
    TITLE "8:cjc041_3998"
    INDEX 01 00:37:54
  TRACK 34 AUDIO
    TITLE "0:"
    INDEX 01 00:38:71
  TRACK 35 AUDIO
    TITLE "9:cjc041_3999"
    INDEX 01 00:39:49
  TRACK 36 AUDIO
    TITLE "0:"
    INDEX 01 00:41:12
  TRACK 37 AUDIO
    TITLE "7:cjc041_4000"
    INDEX 01 00:42:68
  TRACK 38 AUDIO
    TITLE "0:"
    INDEX 01 00:44:05
  TRACK 39 AUDIO
    TITLE "8:cjc041_4001"
    INDEX 01 00:44:60
  TRACK 40 AUDIO
    TITLE "0:"
    INDEX 01 00:45:65
  TRACK 41 AUDIO
    TITLE "9:cjc041_4002"
    INDEX 01 00:46:43
  TRACK 42 AUDIO
    TITLE "0:"
    INDEX 01 00:47:56
  TRACK 43 AUDIO
    TITLE "7:cjc041_4003"
    INDEX 01 00:49:37
  TRACK 44 AUDIO
    TITLE "0:"
    INDEX 01 00:50:48
  TRACK 45 AUDIO
    TITLE "8:cjc041_4004"
    INDEX 01 00:51:24
  TRACK 46 AUDIO
    TITLE "0:"
    INDEX 01 00:52:14
  TRACK 47 AUDIO
    TITLE "9:cjc041_4005"
    INDEX 01 00:52:67
  TRACK 48 AUDIO
    TITLE "0:"
    INDEX 01 00:54:05
  TRACK 49 AUDIO
    TITLE "7:cjc041_4006"
    INDEX 01 00:55:59
  TRACK 50 AUDIO
    TITLE "0:"
    INDEX 01 00:56:72
  TRACK 51 AUDIO
    TITLE "8:cjc041_4007"
    INDEX 01 00:57:50
  TRACK 52 AUDIO
    TITLE "0:"
    INDEX 01 00:59:02
  TRACK 53 AUDIO
    TITLE "9:cjc041_4008"
    INDEX 01 00:59:59
  TRACK 54 AUDIO
    TITLE "0:"
    INDEX 01 01:00:68
  TRACK 55 AUDIO
    TITLE "7:cjc041_4009"
    INDEX 01 01:02:50
  TRACK 56 AUDIO
    TITLE "0:"
    INDEX 01 01:03:65
  TRACK 57 AUDIO
    TITLE "8:cjc041_4010"
    INDEX 01 01:04:47
  TRACK 58 AUDIO
    TITLE "0:"
    INDEX 01 01:05:52
  TRACK 59 AUDIO
    TITLE "9:cjc041_4011"
    INDEX 01 01:06:34
  TRACK 60 AUDIO
    TITLE "0:"
    INDEX 01 01:07:55
  TRACK 61 AUDIO
    TITLE "7:cjc041_4012"
    INDEX 01 01:09:38
  TRACK 62 AUDIO
    TITLE "0:"
    INDEX 01 01:10:59
  TRACK 63 AUDIO
    TITLE "8:cjc041_4013"
    INDEX 01 01:11:41
  TRACK 64 AUDIO
    TITLE "0:"
    INDEX 01 01:12:36
  TRACK 65 AUDIO
    TITLE "9:cjc041_4014"
    INDEX 01 01:13:12
  TRACK 66 AUDIO
    TITLE "0:"
    INDEX 01 01:14:37
  TRACK 67 AUDIO
    TITLE "7:cjc041_4015"
    INDEX 01 01:16:22
  TRACK 68 AUDIO
    TITLE "0:"
    INDEX 01 01:17:28
  TRACK 69 AUDIO
    TITLE "8:cjc041_4016"
    INDEX 01 01:18:13
  TRACK 70 AUDIO
    TITLE "0:"
    INDEX 01 01:19:01
  TRACK 71 AUDIO
    TITLE "9:cjc041_4017"
    INDEX 01 01:19:52
  TRACK 72 AUDIO
    TITLE "0:"
    INDEX 01 01:20:63
  TRACK 73 AUDIO
    TITLE "7:cjc041_4018"
    INDEX 01 01:22:46
  TRACK 74 AUDIO
    TITLE "0:"
    INDEX 01 01:23:62
  TRACK 75 AUDIO
    TITLE "8:cjc041_4019"
    INDEX 01 01:24:41
  TRACK 76 AUDIO
    TITLE "0:"
    INDEX 01 01:25:55
  TRACK 77 AUDIO
    TITLE "9:cjc041_4020"
    INDEX 01 01:26:30
  TRACK 78 AUDIO
    TITLE "0:"
    INDEX 01 01:27:46
  TRACK 79 AUDIO
    TITLE "7:cjc041_4021"
    INDEX 01 01:29:29
  TRACK 80 AUDIO
    TITLE "0:"
    INDEX 01 01:30:46
  TRACK 81 AUDIO
    TITLE "8:cjc041_4022"
    INDEX 01 01:31:26
  TRACK 82 AUDIO
    TITLE "0:"
    INDEX 01 01:32:55
  TRACK 83 AUDIO
    TITLE "9:cjc041_4023"
    INDEX 01 01:33:33
  TRACK 84 AUDIO
    TITLE "0:"
    INDEX 01 01:34:55
  TRACK 85 AUDIO
    TITLE "7:cjc041_4024"
    INDEX 01 01:36:33
  TRACK 86 AUDIO
    TITLE "0:"
    INDEX 01 01:37:50
  TRACK 87 AUDIO
    TITLE "8:cjc041_4025"
    INDEX 01 01:38:32
  TRACK 88 AUDIO
    TITLE "0:"
    INDEX 01 01:39:41
  TRACK 89 AUDIO
    TITLE "9:cjc041_4026"
    INDEX 01 01:40:21
  TRACK 90 AUDIO
    TITLE "0:"
    INDEX 01 01:41:40
  TRACK 91 AUDIO
    TITLE "7:cjc041_4027"
    INDEX 01 01:43:29
  TRACK 92 AUDIO
    TITLE "0:"
    INDEX 01 01:44:44
  TRACK 93 AUDIO
    TITLE "8:cjc041_4028"
    INDEX 01 01:45:26
  TRACK 94 AUDIO
    TITLE "0:"
    INDEX 01 01:46:31
  TRACK 95 AUDIO
    TITLE "9:cjc041_4029"
    INDEX 01 01:47:07
  TRACK 96 AUDIO
    TITLE "0:"
    INDEX 01 01:48:24
